<svg width="24" height="19" viewBox="0 0 24 19" fill="none" xmlns="http://www.w3.org/2000/svg">
<path d="M22.5 17.5H21V8.83281C21 8.62521 20.957 8.41986 20.8735 8.22976C20.7901 8.03966 20.6681 7.86895 20.5153 7.72843L13.0153 0.65218C13.0116 0.648981 13.0082 0.645536 13.005 0.641867C12.7289 0.390742 12.369 0.251587 11.9958 0.251587C11.6225 0.251587 11.2627 0.390742 10.9866 0.641867L10.9762 0.65218L3.48469 7.72843C3.33187 7.86895 3.20989 8.03966 3.12646 8.22976C3.04303 8.41986 2.99997 8.62521 3 8.83281V17.5H1.5C1.30109 17.5 1.11032 17.579 0.96967 17.7197C0.829018 17.8603 0.75 18.0511 0.75 18.25C0.75 18.4489 0.829018 18.6397 0.96967 18.7803C1.11032 18.921 1.30109 19 1.5 19H22.5C22.6989 19 22.8897 18.921 23.0303 18.7803C23.171 18.6397 23.25 18.4489 23.25 18.25C23.25 18.0511 23.171 17.8603 23.0303 17.7197C22.8897 17.579 22.6989 17.5 22.5 17.5ZM14.25 17.5H9.75V13C9.75 12.8011 9.82902 12.6103 9.96967 12.4697C10.1103 12.329 10.3011 12.25 10.5 12.25H13.5C13.6989 12.25 13.8897 12.329 14.0303 12.4697C14.171 12.6103 14.25 12.8011 14.25 13V17.5Z" fill="#343330"/>
</svg>
